<?xml version="1.0" encoding="utf-8"?>
<!-- Generator: Adobe Illustrator 16.0.0, SVG Export Plug-In . SVG Version: 6.00 Build 0)  -->
<!DOCTYPE svg PUBLIC "-//W3C//DTD SVG 1.1//EN" "http://www.w3.org/Graphics/SVG/1.1/DTD/svg11.dtd">
<svg version="1.1" id="Layer_1" xmlns="http://www.w3.org/2000/svg" xmlns:xlink="http://www.w3.org/1999/xlink" x="0px" y="0px"
	 width="1024px" height="1024px" viewBox="0 0 1024 1024" enable-background="new 0 0 1024 1024" xml:space="preserve">
<path fill="#FFFFFF" stroke="#000000" stroke-miterlimit="10" d="M772.566,578.236l6.973-39.531l-53.932-9.51
	c0.455-5.702,0.695-11.465,0.695-17.284s-0.24-11.582-0.695-17.284l53.93-9.509l-6.968-39.532l-53.896,9.503
	c-3.08-11.228-7.046-22.086-11.826-32.496l47.393-27.362l-20.068-34.765l-47.415,27.375c-6.698-9.417-14.146-18.26-22.242-26.462
	l35.21-41.962l-30.749-25.805l-35.201,41.952c-9.452-6.54-19.453-12.342-29.925-17.317l18.718-51.426l-37.721-13.731L566.13,304.51
	c-11.032-2.872-22.412-4.877-34.061-5.959v-54.765h-40.139v54.765c-11.648,1.082-23.028,3.087-34.061,5.959l-18.715-51.419
	l-37.718,13.729l18.717,51.425c-10.473,4.976-20.474,10.778-29.928,17.318l-35.199-41.949l-30.748,25.801l35.209,41.961
	c-8.097,8.203-15.546,17.047-22.244,26.464l-47.413-27.374l-20.068,34.762l47.391,27.361c-4.78,10.411-8.747,21.271-11.827,32.499
	l-53.894-9.503l-6.969,39.53l53.928,9.509c-0.456,5.703-0.696,11.466-0.696,17.286c0,5.819,0.24,11.582,0.695,17.284l-53.93,9.509
	l6.973,39.53l53.892-9.503c3.08,11.229,7.046,22.088,11.827,32.499l-47.392,27.361l20.072,34.762l47.41-27.373
	c6.698,9.417,14.146,18.262,22.243,26.464l-35.21,41.961l30.752,25.8l35.196-41.946c9.454,6.54,19.455,12.343,29.927,17.318
	l-18.717,51.425l37.722,13.725l18.713-51.414c11.032,2.871,22.412,4.876,34.061,5.959v54.764h40.139v-54.764
	c11.648-1.083,23.028-3.088,34.061-5.959l18.715,51.417l37.719-13.728l-18.717-51.425c10.473-4.976,20.474-10.777,29.928-17.318
	l35.198,41.948l30.75-25.801l-35.21-41.961c8.097-8.203,15.545-17.047,22.243-26.465l47.412,27.374l20.071-34.762l-47.393-27.362
	c4.779-10.41,8.746-21.27,11.826-32.497L772.566,578.236z M664.559,559.1c-1.55,5.019-3.341,9.932-5.359,14.726l-39.154-11.968
	l-10.768,18.649l29.912,27.897c-3.166,4.166-6.531,8.171-10.083,12.002l-32.66-24.608l-16.497,13.843l18.573,36.459
	c-4.379,2.83-8.904,5.452-13.563,7.851l-22.297-34.329l-20.236,7.365l4.985,40.628c-5.059,1.146-10.208,2.054-15.437,2.707
	l-9.207-39.868h-21.535l-9.207,39.868c-5.229-0.653-10.378-1.562-15.438-2.707l4.986-40.628l-20.234-7.365l-22.299,34.329
	c-4.66-2.398-9.185-5.021-13.563-7.851l18.574-36.46l-16.495-13.841l-32.663,24.606c-3.551-3.831-6.917-7.835-10.082-12.001
	l29.912-27.898l-10.766-18.648l-39.156,11.967c-2.019-4.793-3.81-9.706-5.36-14.725l37.688-16.002l-3.739-21.206l-40.848-2.145
	c-0.125-2.597-0.193-5.208-0.193-7.836c0-2.628,0.068-5.241,0.193-7.838l40.848-2.144l3.739-21.207l-37.688-16.001
	c1.55-5.019,3.341-9.931,5.36-14.724l39.155,11.967l10.768-18.649l-29.913-27.898c3.166-4.166,6.531-8.17,10.083-12.001
	l32.661,24.607l16.496-13.842l-18.573-36.459c4.379-2.83,8.904-5.452,13.564-7.851l22.296,34.328l20.236-7.365l-4.985-40.626
	c5.059-1.146,10.208-2.054,15.437-2.707l9.207,39.867h21.535l9.206-39.867c5.229,0.653,10.38,1.561,15.439,2.707l-4.984,40.625
	l20.234,7.366l22.298-34.326c4.659,2.398,9.184,5.021,13.563,7.85l-18.571,36.458l16.495,13.842l32.66-24.606
	c3.551,3.831,6.916,7.835,10.082,12.001l-29.91,27.897l10.767,18.649l39.153-11.966c2.019,4.793,3.809,9.706,5.359,14.724
	l-37.686,16.001l3.739,21.207l40.846,2.144c0.126,2.597,0.193,5.209,0.193,7.837s-0.067,5.239-0.193,7.837l-40.846,2.145
	l-3.74,21.207L664.559,559.1z"/>
</svg>
