<?xml version="1.0" encoding="utf-8"?>
<!-- Generator: Adobe Illustrator 16.0.0, SVG Export Plug-In . SVG Version: 6.00 Build 0)  -->
<!DOCTYPE svg PUBLIC "-//W3C//DTD SVG 1.1//EN" "http://www.w3.org/Graphics/SVG/1.1/DTD/svg11.dtd">
<svg version="1.1" id="Layer_1" xmlns="http://www.w3.org/2000/svg" xmlns:xlink="http://www.w3.org/1999/xlink" x="0px" y="0px"
	 width="1024px" height="1024px" viewBox="0 0 1024 1024" enable-background="new 0 0 1024 1024" xml:space="preserve">
<polygon points="253.827,417.564 207.882,354.131 129.58,356.018 175.711,292.719 149.72,218.833 224.176,243.146 286.415,195.594 
	286.299,273.919 350.756,318.417 276.229,342.512 "/>
<polygon points="323.595,622.216 280.502,674.482 299.128,739.611 236.104,714.779 179.918,752.62 184.06,685.006 130.709,643.264 
	196.292,626.309 219.505,562.67 255.897,619.805 "/>
<polygon points="470.106,583.844 449.728,518.125 384.038,497.656 440.242,457.967 439.41,389.167 494.525,430.355 559.701,408.304 
	537.559,473.449 578.672,528.621 509.873,527.693 "/>
<polygon points="509.641,737.332 489.084,772.449 506.358,809.291 466.608,800.593 436.907,828.406 432.896,787.913 
	397.266,768.261 434.538,751.934 442.218,711.974 469.264,742.376 "/>
<polygon points="696.85,752.62 683.418,669.568 607.387,633.552 682.221,595.111 692.98,511.672 752.666,570.967 835.346,555.415 
	797.396,630.501 837.736,704.329 754.6,691.44 "/>
<polygon points="675.92,454.773 661.523,434.325 636.516,434.593 651.514,414.58 643.531,390.879 667.199,398.96 687.273,384.044 
	686.902,409.05 707.291,423.533 683.393,430.907 "/>
<polygon points="592.199,290.82 556.534,309.283 551.524,349.129 522.944,320.916 483.5,328.464 501.501,292.564 482.133,257.383 
	521.838,263.41 549.313,234.118 555.852,273.742 "/>
</svg>
